<svg width="72" height="36" viewBox="0 0 72 36" fill="none" xmlns="http://www.w3.org/2000/svg">
<path d="M19.6364 22.9091V12.7964C17.28 11.7164 15.0873 10.4073 13.0909 8.86909V22.9091H19.6364ZM13.0909 36H6.54545V29.4545H0V22.9091H6.54545V0H13.0909V4.68C18.9818 9.81818 27.0655 13.0909 36 13.0909C44.9345 13.0909 53.0182 9.81818 58.9091 4.68V0H65.4545V22.9091H72V29.4545H65.4545V36H58.9091V29.4545H13.0909V36ZM52.3636 12.7964V22.9091H58.9091V8.86909C56.9127 10.4073 54.72 11.7164 52.3636 12.7964ZM49.0909 22.9091V14.1382C46.9964 14.8909 44.8036 15.4473 42.5455 15.84V22.9091H49.0909ZM39.2727 22.9091V16.2327L36 16.3636L32.7273 16.2327V22.9091H39.2727ZM29.4545 22.9091V15.84C27.1964 15.4473 25.0036 14.8909 22.9091 14.1382V22.9091H29.4545Z" fill="white"/>
</svg>
