<svg width="73" height="59" viewBox="0 0 73 59" fill="none" xmlns="http://www.w3.org/2000/svg">
    <mask id="path-1-inside-1_340_2053" fill="currentColor">
        <path
            d="M69.922 3.18609C68.2781 1.07297 65.8335 0 62.6704 0C57.3121 0 50.3952 3.62906 44.1642 9.70922C41.8659 11.9215 39.8191 14.381 38.061 17.0428V4.59375C38.061 4.0716 37.8536 3.57085 37.4844 3.20163C37.1152 2.83242 36.6144 2.625 36.0923 2.625C35.5701 2.625 35.0694 2.83242 34.7002 3.20163C34.3309 3.57085 34.1235 4.0716 34.1235 4.59375V17.0428C32.3716 14.382 30.3314 11.9226 28.0401 9.70922C21.8156 3.62906 14.8954 0 9.53711 0C6.35758 0 3.91305 1.07297 2.26914 3.18609C0.454612 5.51906 -0.2607 8.99063 0.0838312 13.7977C0.382425 17.9747 1.43571 22.5028 2.31836 25.9809C4.37899 34.0987 9.13352 36.8091 12.7462 37.6884C11.7818 39.2214 11.1288 40.9292 10.8245 42.7145C10.5202 44.4998 10.5705 46.3275 10.9725 48.0934C11.3746 49.8592 12.1205 51.5286 13.1677 53.0061C14.2149 54.4837 15.5429 55.7406 17.0758 56.7049C18.6087 57.6693 20.3166 58.3222 22.1019 58.6266C23.8871 58.9309 25.7149 58.8806 27.4807 58.4786C29.2466 58.0765 30.9159 57.3306 32.3935 56.2834C33.8711 55.2362 35.1279 53.9082 36.0923 52.3753C38.0399 55.4716 41.1377 57.6674 44.7043 58.4797C48.2709 59.292 52.0141 58.6542 55.1104 56.7066C58.2067 54.759 60.4025 51.6611 61.2148 48.0945C62.0271 44.5279 61.3893 40.7848 59.4417 37.6884C63.051 36.8255 67.8088 34.0987 69.8695 25.9809C72.0384 17.4595 73.7348 8.08828 69.922 3.18609ZM24.2798 55.125C21.7783 55.0892 19.3836 54.1062 17.5784 52.3742C15.7733 50.6421 14.6922 48.29 14.5532 45.7922C14.4141 43.2944 15.2275 40.8368 16.8292 38.9151C18.4309 36.9934 20.7018 35.7507 23.1838 35.4375C23.4424 35.4093 23.6928 35.3304 23.9209 35.2054C24.1489 35.0804 24.3501 34.9117 24.513 34.7089C24.6759 34.5061 24.7972 34.2733 24.87 34.0236C24.9429 33.7739 24.9659 33.5124 24.9377 33.2538C24.9094 32.9953 24.8306 32.7448 24.7056 32.5168C24.5805 32.2887 24.4118 32.0875 24.2091 31.9247C24.0063 31.7618 23.7734 31.6405 23.5238 31.5676C23.2741 31.4948 23.0125 31.4718 22.754 31.5C20.3423 31.7694 18.0457 32.6754 16.0996 34.125C13.1465 34.2267 8.18524 33.0881 6.13446 25.0162C5.06805 20.813 2.23305 9.65016 5.37649 5.60766C6.2493 4.48219 7.61102 3.9375 9.53711 3.9375C13.7634 3.9375 19.9452 7.31062 25.2871 12.5278C30.7406 17.8467 34.1235 23.8186 34.1235 28.1105V45.2812C34.1235 47.892 33.0864 50.3958 31.2404 52.2418C29.3943 54.0879 26.8905 55.125 24.2798 55.125ZM66.0534 25.013C64.0059 33.0848 59.061 34.2202 56.1079 34.125C54.1626 32.674 51.8656 31.7679 49.4535 31.5C49.195 31.4707 48.9332 31.4926 48.6831 31.5645C48.4331 31.6363 48.1996 31.7568 47.9961 31.9189C47.7925 32.081 47.6229 32.2816 47.4969 32.5092C47.3709 32.7368 47.2909 32.9871 47.2616 33.2456C47.2323 33.5042 47.2543 33.7659 47.3261 34.016C47.398 34.2661 47.5184 34.4996 47.6805 34.7031C47.8426 34.9066 48.0432 35.0762 48.2708 35.2022C48.4985 35.3283 48.7487 35.4082 49.0073 35.4375C50.9038 35.6434 52.7001 36.394 54.1794 37.5985C55.6586 38.8031 56.7575 40.4101 57.3433 42.2256C57.9291 44.0411 57.9768 45.9873 57.4806 47.8293C56.9845 49.6713 55.9656 51.3303 54.5472 52.6059C53.1287 53.8815 51.3713 54.7191 49.4872 55.0177C47.6031 55.3163 45.6728 55.063 43.9294 54.2885C42.1861 53.5139 40.7043 52.2512 39.6629 50.6529C38.6216 49.0545 38.0652 47.1889 38.061 45.2812V28.1105C38.061 23.8186 41.4473 17.8467 46.8974 12.5278C52.2459 7.31062 58.4277 3.9375 62.6704 3.9375C64.5965 3.9375 65.9516 4.48219 66.831 5.60437C69.9581 9.64687 67.1231 20.8097 66.0566 25.013H66.0534Z" />
    </mask>
    <path
        d="M69.922 3.18609C68.2781 1.07297 65.8335 0 62.6704 0C57.3121 0 50.3952 3.62906 44.1642 9.70922C41.8659 11.9215 39.8191 14.381 38.061 17.0428V4.59375C38.061 4.0716 37.8536 3.57085 37.4844 3.20163C37.1152 2.83242 36.6144 2.625 36.0923 2.625C35.5701 2.625 35.0694 2.83242 34.7002 3.20163C34.3309 3.57085 34.1235 4.0716 34.1235 4.59375V17.0428C32.3716 14.382 30.3314 11.9226 28.0401 9.70922C21.8156 3.62906 14.8954 0 9.53711 0C6.35758 0 3.91305 1.07297 2.26914 3.18609C0.454612 5.51906 -0.2607 8.99063 0.0838312 13.7977C0.382425 17.9747 1.43571 22.5028 2.31836 25.9809C4.37899 34.0987 9.13352 36.8091 12.7462 37.6884C11.7818 39.2214 11.1288 40.9292 10.8245 42.7145C10.5202 44.4998 10.5705 46.3275 10.9725 48.0934C11.3746 49.8592 12.1205 51.5286 13.1677 53.0061C14.2149 54.4837 15.5429 55.7406 17.0758 56.7049C18.6087 57.6693 20.3166 58.3222 22.1019 58.6266C23.8871 58.9309 25.7149 58.8806 27.4807 58.4786C29.2466 58.0765 30.9159 57.3306 32.3935 56.2834C33.8711 55.2362 35.1279 53.9082 36.0923 52.3753C38.0399 55.4716 41.1377 57.6674 44.7043 58.4797C48.2709 59.292 52.0141 58.6542 55.1104 56.7066C58.2067 54.759 60.4025 51.6611 61.2148 48.0945C62.0271 44.5279 61.3893 40.7848 59.4417 37.6884C63.051 36.8255 67.8088 34.0987 69.8695 25.9809C72.0384 17.4595 73.7348 8.08828 69.922 3.18609ZM24.2798 55.125C21.7783 55.0892 19.3836 54.1062 17.5784 52.3742C15.7733 50.6421 14.6922 48.29 14.5532 45.7922C14.4141 43.2944 15.2275 40.8368 16.8292 38.9151C18.4309 36.9934 20.7018 35.7507 23.1838 35.4375C23.4424 35.4093 23.6928 35.3304 23.9209 35.2054C24.1489 35.0804 24.3501 34.9117 24.513 34.7089C24.6759 34.5061 24.7972 34.2733 24.87 34.0236C24.9429 33.7739 24.9659 33.5124 24.9377 33.2538C24.9094 32.9953 24.8306 32.7448 24.7056 32.5168C24.5805 32.2887 24.4118 32.0875 24.2091 31.9247C24.0063 31.7618 23.7734 31.6405 23.5238 31.5676C23.2741 31.4948 23.0125 31.4718 22.754 31.5C20.3423 31.7694 18.0457 32.6754 16.0996 34.125C13.1465 34.2267 8.18524 33.0881 6.13446 25.0162C5.06805 20.813 2.23305 9.65016 5.37649 5.60766C6.2493 4.48219 7.61102 3.9375 9.53711 3.9375C13.7634 3.9375 19.9452 7.31062 25.2871 12.5278C30.7406 17.8467 34.1235 23.8186 34.1235 28.1105V45.2812C34.1235 47.892 33.0864 50.3958 31.2404 52.2418C29.3943 54.0879 26.8905 55.125 24.2798 55.125ZM66.0534 25.013C64.0059 33.0848 59.061 34.2202 56.1079 34.125C54.1626 32.674 51.8656 31.7679 49.4535 31.5C49.195 31.4707 48.9332 31.4926 48.6831 31.5645C48.4331 31.6363 48.1996 31.7568 47.9961 31.9189C47.7925 32.081 47.6229 32.2816 47.4969 32.5092C47.3709 32.7368 47.2909 32.9871 47.2616 33.2456C47.2323 33.5042 47.2543 33.7659 47.3261 34.016C47.398 34.2661 47.5184 34.4996 47.6805 34.7031C47.8426 34.9066 48.0432 35.0762 48.2708 35.2022C48.4985 35.3283 48.7487 35.4082 49.0073 35.4375C50.9038 35.6434 52.7001 36.394 54.1794 37.5985C55.6586 38.8031 56.7575 40.4101 57.3433 42.2256C57.9291 44.0411 57.9768 45.9873 57.4806 47.8293C56.9845 49.6713 55.9656 51.3303 54.5472 52.6059C53.1287 53.8815 51.3713 54.7191 49.4872 55.0177C47.6031 55.3163 45.6728 55.063 43.9294 54.2885C42.1861 53.5139 40.7043 52.2512 39.6629 50.6529C38.6216 49.0545 38.0652 47.1889 38.061 45.2812V28.1105C38.061 23.8186 41.4473 17.8467 46.8974 12.5278C52.2459 7.31062 58.4277 3.9375 62.6704 3.9375C64.5965 3.9375 65.9516 4.48219 66.831 5.60437C69.9581 9.64687 67.1231 20.8097 66.0566 25.013H66.0534Z"
        fill="currentColor" stroke="currentColor" stroke-width="2" mask="url(#path-1-inside-1_340_2053)" />
</svg>