<svg width="82" height="81" viewBox="0 0 82 81" fill="none" xmlns="http://www.w3.org/2000/svg">
    <path
        d="M24.6 16.2C22.4252 16.2 20.3395 17.0534 18.8017 18.5724C17.2639 20.0915 16.4 22.1517 16.4 24.3V28.5525C14.0848 29.0193 12.0039 30.262 10.5097 32.0701C9.01541 33.8783 8.19947 36.1409 8.19995 38.475V48.6C8.19995 50.7483 9.06388 52.8085 10.6017 54.3276C12.1395 55.8466 14.2252 56.7 16.4 56.7V62.775C16.4 63.3121 16.6159 63.8271 17.0004 64.2069C17.3848 64.5867 17.9063 64.8 18.45 64.8C18.9936 64.8 19.5151 64.5867 19.8995 64.2069C20.284 63.8271 20.5 63.3121 20.5 62.775V56.7H61.5V62.775C61.5 63.3121 61.7159 63.8271 62.1004 64.2069C62.4848 64.5867 63.0063 64.8 63.5499 64.8C64.0936 64.8 64.6151 64.5867 64.9995 64.2069C65.384 63.8271 65.5999 63.3121 65.5999 62.775V56.7C67.7747 56.7 69.8604 55.8466 71.3982 54.3276C72.936 52.8085 73.7999 50.7483 73.7999 48.6V38.475C73.8004 36.1409 72.9845 33.8783 71.4902 32.0701C69.996 30.262 67.9151 29.0193 65.5999 28.5525V24.3C65.5999 22.1517 64.736 20.0915 63.1982 18.5724C61.6604 17.0534 59.5747 16.2 57.3999 16.2H24.6ZM61.5 28.5525C57.4819 29.3585 54.3209 32.481 53.505 36.45H28.4949C28.0932 34.5042 27.1211 32.718 25.6995 31.3138C24.278 29.9096 22.4698 28.9493 20.5 28.5525V24.3C20.5 23.2259 20.9319 22.1957 21.7008 21.4362C22.4697 20.6767 23.5126 20.25 24.6 20.25H57.3999C58.4873 20.25 59.5302 20.6767 60.2991 21.4362C61.068 22.1957 61.5 23.2259 61.5 24.3V28.5525ZM65.5999 52.65H16.4C15.3126 52.65 14.2697 52.2233 13.5008 51.4638C12.7319 50.7043 12.3 49.6741 12.3 48.6V38.475C12.3 36.8638 12.9479 35.3186 14.1012 34.1793C15.2546 33.04 16.8189 32.4 18.45 32.4C20.081 32.4 21.6453 33.04 22.7987 34.1793C23.952 35.3186 24.6 36.8638 24.6 38.475C24.6 39.0121 24.8159 39.5271 25.2004 39.9069C25.5848 40.2867 26.1063 40.5 26.65 40.5H55.3499C55.8936 40.5 56.4151 40.2867 56.7995 39.9069C57.184 39.5271 57.3999 39.0121 57.3999 38.475C57.3999 36.8638 58.0479 35.3186 59.2012 34.1793C60.3546 33.04 61.9189 32.4 63.5499 32.4C65.181 32.4 66.7453 33.04 67.8987 34.1793C69.052 35.3186 69.7 36.8638 69.7 38.475V48.6C69.7 49.6741 69.268 50.7043 68.4991 51.4638C67.7302 52.2233 66.6873 52.65 65.5999 52.65Z"
        fill="currentColor" />
</svg>