<svg width="70" height="65" viewBox="0 0 70 65" fill="none" xmlns="http://www.w3.org/2000/svg">
    <path
        d="M27.3608 9.52708C27.3608 4.83114 22.0331 1.1048 15.5365 2.18925C5.99938 3.77709 1.64128 22.4798 2.02303 25.8379C2.2933 28.2129 7.85073 31.6554 14.3744 29.2163C18.6345 27.6217 20.996 24.3176 22.2933 20.7703M41.7764 9.52708C41.7764 4.83114 47.1041 1.1048 53.6007 2.18925C63.1378 3.77709 67.4959 22.4798 67.1142 25.8379C66.8439 28.2129 61.2865 31.6554 54.7628 29.2163C50.5027 27.6217 48.496 24.3176 47.1987 20.7703M20.6041 39.3514V41.0406M47.6311 39.3514V41.0406M31.5838 46.9527H36.6514L34.1176 49.4865L31.5838 46.9527Z"
        stroke="currentColor" stroke-width="4" stroke-linecap="round" stroke-linejoin="round" />
    <path
        d="M8.5095 30.0507C7.56572 33.7021 7.08894 37.4584 7.09058 41.2297C7.09058 55.3243 19.1919 63 34.1176 63C49.0432 63 61.1446 55.3243 61.1446 41.2297C61.1446 37.6453 60.5973 33.7973 59.479 30.0507M28.2527 9.50343C30.185 9.12822 32.1492 8.94153 34.1176 8.946C36.7527 8.946 39.1851 9.31087 41.4182 9.97978"
        stroke="currentColor" stroke-width="4" stroke-linecap="round" stroke-linejoin="round" />
</svg>