<svg width="53" height="76" viewBox="0 0 53 76" fill="none" xmlns="http://www.w3.org/2000/svg">
    <path fill-rule="evenodd" clip-rule="evenodd"
        d="M14.1338 9.42089C14.1338 6.92231 15.1263 4.52607 16.8931 2.75931C18.6599 0.992555 21.0561 0 23.5547 0C26.0533 0 28.4495 0.992555 30.2163 2.75931C31.983 4.52607 32.9756 6.92231 32.9756 9.42089C32.9756 11.9195 31.983 14.3157 30.2163 16.0825C28.4495 17.8492 26.0533 18.8418 23.5547 18.8418C21.0561 18.8418 18.6599 17.8492 16.8931 16.0825C15.1263 14.3157 14.1338 11.9195 14.1338 9.42089ZM23.5547 3.76836C22.0555 3.76836 20.6178 4.36389 19.5577 5.42394C18.4977 6.484 17.9021 7.92174 17.9021 9.42089C17.9021 10.92 18.4977 12.3578 19.5577 13.4178C20.6178 14.4779 22.0555 15.0734 23.5547 15.0734C25.0538 15.0734 26.4916 14.4779 27.5516 13.4178C28.6117 12.3578 29.2072 10.92 29.2072 9.42089C29.2072 7.92174 28.6117 6.484 27.5516 5.42394C26.4916 4.36389 25.0538 3.76836 23.5547 3.76836Z"
        fill="currentColor" />
    <path
        d="M15.3867 29.1294L15.0626 31.3395C14.7517 33.4592 14.1525 36.2478 13.4328 39.2267L12.8449 41.6629L10.6687 40.4231C10.1625 40.1375 9.69889 39.7824 9.29135 39.368C8.11374 38.164 7.51645 36.5399 7.53153 34.8761C7.53775 33.1865 8.19976 31.5652 9.37802 30.3541C10.0055 29.7154 10.8364 29.4761 11.3752 29.363C11.9782 29.2368 12.615 29.1953 13.152 29.1821L15.3867 29.1294Z"
        fill="currentColor" />
    <path fill-rule="evenodd" clip-rule="evenodd"
        d="M4.01955 25.0596C6.74784 22.2917 10.5765 20.726 15.0269 20.726H28.2859C37.7934 20.726 43.7512 24.1797 47.1842 28.5227C49.0608 30.8949 50.5267 33.9378 50.8489 37.1334V37.1484L50.8527 37.1824V37.1993L50.8546 37.2031V37.2144L50.8602 37.2709V37.2766C50.9431 38.4259 50.6774 39.5187 50.1499 40.4552C50.9501 40.9663 51.6086 41.6708 52.0647 42.5036C52.5208 43.3365 52.7597 44.2707 52.7595 45.2203V73.4829C52.7595 73.9826 52.561 74.4619 52.2076 74.8152C51.8542 75.1686 51.375 75.3671 50.8753 75.3671C50.3756 75.3671 49.8963 75.1686 49.543 74.8152C49.1896 74.4619 48.9911 73.9826 48.9911 73.4829V45.2203C48.9911 44.7206 48.7926 44.2413 48.4392 43.8879C48.0859 43.5346 47.6066 43.3361 47.1069 43.3361C46.6072 43.3361 46.128 43.5346 45.7746 43.8879C45.4213 44.2413 45.2228 44.7206 45.2228 45.2203V45.8665C45.2228 46.3663 45.0242 46.8455 44.6709 47.1989C44.3175 47.5522 43.8383 47.7507 43.3386 47.7507C42.8389 47.7507 42.3596 47.5522 42.0063 47.1989C41.6529 46.8455 41.4544 46.3663 41.4544 45.8665V45.2203C41.4544 44.2179 41.7144 43.2777 42.1723 42.4618C41.7864 42.187 41.4424 41.8576 41.151 41.4839C40.3239 40.4401 39.9037 39.0948 39.6117 38.1546L39.5702 38.0284L39.4459 37.6364C39.1986 36.8769 38.819 36.1669 38.3248 35.5394C37.6842 34.7292 36.5216 33.6345 34.3077 32.8827C35.7585 40.0652 39.3422 52.7249 40.7874 57.7331C40.9359 58.2469 40.9728 58.7865 40.8959 59.3158C40.8189 59.845 40.6298 60.3518 40.3412 60.802C40.0525 61.2523 39.671 61.6357 39.2222 61.9266C38.7734 62.2175 38.2677 62.4091 37.7388 62.4888C26.2905 64.2297 18.9517 64.29 7.48078 62.5001C6.95107 62.4178 6.4451 62.2231 5.99691 61.929C5.54872 61.6349 5.16869 61.2482 4.88238 60.795C4.59607 60.3418 4.41011 59.8325 4.33701 59.3015C4.2639 58.7704 4.30535 58.2298 4.45856 57.7161C5.13121 55.4495 6.27491 51.536 7.45064 47.2495C6.13978 46.576 4.94569 45.6962 3.91404 44.6437C1.22155 41.8947 -0.0314325 38.294 0.000598521 34.8026C0.0248747 31.1562 1.46528 27.662 4.01767 25.0577M47.09 37.4556L47.0937 37.5875V37.6496L47.1032 37.7646C47.0833 38.222 46.8975 38.6566 46.5806 38.987C46.2637 39.3175 45.8372 39.5212 45.381 39.5602C44.91 39.5979 44.65 39.5319 44.5068 39.4716C44.346 39.4004 44.2069 39.2879 44.1035 39.1457C43.7569 38.7067 43.5176 38.0227 43.1671 36.8997L43.0352 36.489C42.6504 35.297 42.0564 34.183 41.2811 33.1992C39.8265 31.3603 37.1735 29.2707 32.2351 28.5359L29.7423 28.1647L30.0909 30.6593C30.9878 37.0712 35.5437 53.1527 37.1622 58.7637C26.0833 60.4482 19.1344 60.5028 8.0743 58.775C8.83363 56.2201 10.1846 51.5907 11.5129 46.6767L11.9595 45.0224L10.356 44.4195C8.94293 43.9015 7.66233 43.0766 6.60653 42.004C4.67336 40.0312 3.74634 37.4198 3.77084 34.8384C3.7856 32.1697 4.83685 29.6112 6.70262 27.7031C8.65651 25.7247 11.4884 24.4943 15.0269 24.4943H28.2859C36.7873 24.4943 41.5957 27.5297 44.2298 30.8609C45.7484 32.7828 46.8488 35.1437 47.0937 37.4556"
        fill="currentColor" />
    <path
        d="M14.7009 75.1297C14.0229 75.0385 13.401 74.7045 12.9506 74.1896C12.5001 73.6747 12.2517 73.0139 12.2515 72.3298V65.9726C14.8215 66.3551 17.2069 66.6 19.5376 66.7131L17.8041 73.0722C17.624 73.7329 17.21 74.3057 16.6392 74.6842C16.0684 75.0626 15.3796 75.2209 14.7009 75.1297ZM27.4229 73.0722L25.6838 66.6999C28.1249 66.5642 30.5582 66.3127 32.9755 65.9462V72.3298C32.9767 73.0153 32.7286 73.6779 32.2775 74.1941C31.8265 74.7103 31.2032 75.045 30.5237 75.1358C29.8442 75.2267 29.1549 75.0674 28.5841 74.6878C28.0133 74.3081 27.6018 73.7339 27.4229 73.0722Z"
        fill="currentColor" />
</svg>