<?xml version="1.0" encoding="UTF-8" standalone="no"?>
<!DOCTYPE svg PUBLIC "-//W3C//DTD SVG 1.1//EN" "http://www.w3.org/Graphics/SVG/1.1/DTD/svg11.dtd">
<svg width="100%" height="100%" fill="currentColor" viewBox="0 0 57 59" version="1.1" xmlns="http://www.w3.org/2000/svg"
    xmlns:xlink="http://www.w3.org/1999/xlink" xml:space="preserve" xmlns:serif="http://www.serif.com/"
    style="fill-rule:evenodd;clip-rule:evenodd;stroke-linejoin:round;stroke-miterlimit:2;">
    <path
        d="M14.104,9.738L14.046,9.796C13.235,10.607 13.195,10.918 13.174,11.081C13.163,11.165 13.162,11.242 13.167,11.326C13.167,11.332 13.167,14.167 13.167,14.167C13.167,14.653 12.974,15.119 12.63,15.463C12.286,15.807 11.82,16 11.333,16C10.847,16 10.381,15.807 10.037,15.463C9.693,15.119 9.5,14.653 9.5,14.167L9.5,11.333C9.5,9.114 10.75,7.906 11.396,7.262L11.453,7.205C12.264,6.394 12.305,6.082 12.326,5.919C12.337,5.835 12.338,5.758 12.333,5.674C12.333,5.668 12.333,2.833 12.333,2.833C12.333,2.347 12.526,1.881 12.87,1.537C13.214,1.193 13.68,1 14.167,1C14.653,1 15.119,1.193 15.463,1.537C15.807,1.881 16,2.347 16,2.833L16,5.667C16,7.886 14.75,9.094 14.104,9.738ZM45.271,9.738L45.213,9.796C44.402,10.607 44.362,10.917 44.341,11.081C44.33,11.165 44.328,11.242 44.334,11.326C44.333,11.333 44.333,14.167 44.333,14.167C44.333,14.653 44.14,15.119 43.796,15.463C43.453,15.807 42.986,16 42.5,16C42.014,16 41.547,15.807 41.204,15.463C40.86,15.119 40.667,14.653 40.667,14.167L40.667,11.333C40.667,9.114 41.916,7.906 42.563,7.262L42.552,7.266C42.575,7.247 42.598,7.227 42.619,7.206L42.621,7.204C43.432,6.393 43.471,6.082 43.493,5.919C43.503,5.835 43.505,5.758 43.5,5.674C43.5,5.667 43.5,2.833 43.5,2.833C43.5,2.347 43.693,1.881 44.037,1.537C44.381,1.193 44.847,1 45.333,1C45.82,1 46.286,1.193 46.63,1.537C46.974,1.881 47.167,2.347 47.167,2.833L47.167,5.667C47.167,7.886 45.917,9.094 45.271,9.738ZM25.083,11.333C25.083,9.115 26.866,7.375 27.036,7.206L27.037,7.204C27.838,6.403 27.882,6.102 27.906,5.941C27.921,5.849 27.923,5.766 27.918,5.672L27.894,5.698C27.896,5.693 27.898,5.688 27.9,5.683L27.917,5.667L27.917,2.833C27.917,2.347 28.11,1.881 28.454,1.537C28.797,1.193 29.264,1 29.75,1C30.236,1 30.703,1.193 31.046,1.537C31.39,1.881 31.583,2.347 31.583,2.833L31.583,5.667C31.583,7.884 30.333,9.093 29.686,9.739L29.631,9.795L29.632,9.798L29.631,9.799L29.629,9.796C28.829,10.597 28.785,10.898 28.76,11.06C28.746,11.151 28.75,11.34 28.75,11.34L28.75,14.167C28.75,14.653 28.557,15.119 28.213,15.463C27.869,15.807 27.403,16 26.917,16C26.43,16 25.964,15.807 25.62,15.463C25.276,15.119 25.083,14.653 25.083,14.167L25.083,11.333ZM2.833,22.25L53.833,22.25C54.32,22.25 54.786,22.443 55.13,22.787C55.474,23.131 55.667,23.597 55.667,24.083L55.667,26.917C55.667,38.126 48.921,47.759 39.266,51.976C38.902,52.135 38.667,52.495 38.667,52.893L38.667,55.25C38.667,55.736 38.474,56.203 38.13,56.546C37.786,56.89 37.32,57.083 36.833,57.083L19.833,57.083C19.347,57.083 18.881,56.89 18.537,56.546C18.193,56.203 18,55.736 18,55.25L18,52.893C18,52.495 17.765,52.135 17.4,51.976C7.746,47.759 1,38.124 1,26.917L1,24.083C1,23.597 1.193,23.131 1.537,22.787C1.881,22.443 2.347,22.25 2.833,22.25ZM5.667,25.917C5.114,25.917 4.667,26.364 4.667,26.917C4.667,33.193 7.16,39.213 11.598,43.651C16.037,48.09 22.057,50.583 28.333,50.583C34.61,50.583 40.63,48.09 45.068,43.652C49.507,39.213 52,33.193 52,26.917C52,26.364 51.552,25.917 51,25.917L5.667,25.917Z" />
</svg>