<svg width="57" height="59" viewBox="0 0 57 59" fill="none" xmlns="http://www.w3.org/2000/svg">
    <path
        d="M17 2.83333C17 2.08189 16.7015 1.36122 16.1701 0.829864C15.6388 0.298511 14.9181 0 14.1667 0C13.4152 0 12.6946 0.298511 12.1632 0.829864C11.6318 1.36122 11.3333 2.08189 11.3333 2.83333V5.71767C11.3447 5.84233 11.3475 5.89617 10.7468 6.49683L10.6902 6.5535C9.93367 7.30717 8.5 8.73517 8.5 11.3333V14.1667C8.5 14.9181 8.79851 15.6388 9.32987 16.1701C9.86122 16.7015 10.5819 17 11.3333 17C12.0848 17 12.8054 16.7015 13.3368 16.1701C13.8682 15.6388 14.1667 14.9181 14.1667 14.1667V11.2823C14.1553 11.1577 14.1525 11.1038 14.7532 10.5032L14.8098 10.4465C15.5663 9.69283 17 8.26483 17 5.66667V2.83333ZM48.1667 2.83333C48.1667 2.08189 47.8682 1.36122 47.3368 0.829864C46.8055 0.298511 46.0848 0 45.3333 0C44.5819 0 43.8612 0.298511 43.3299 0.829864C42.7985 1.36122 42.5 2.08189 42.5 2.83333V5.71767C42.5113 5.84233 42.5142 5.89617 41.9135 6.49683L41.8568 6.5535C41.1003 7.30717 39.6667 8.73517 39.6667 11.3333V14.1667C39.6667 14.9181 39.9652 15.6388 40.4965 16.1701C41.0279 16.7015 41.7486 17 42.5 17C43.2514 17 43.9721 16.7015 44.5035 16.1701C45.0348 15.6388 45.3333 14.9181 45.3333 14.1667V11.2823C45.322 11.1577 45.3192 11.1038 45.9198 10.5032L45.9765 10.4465C46.733 9.69283 48.1667 8.26483 48.1667 5.66667V2.83333ZM29.75 0C30.5014 0 31.2221 0.298511 31.7535 0.829864C32.2848 1.36122 32.5833 2.08189 32.5833 2.83333V5.66667C32.5833 8.262 31.1497 9.69 30.3932 10.4465L30.3365 10.5032C29.7358 11.1038 29.7415 11.1577 29.7472 11.2823L29.75 11.3333V14.1667C29.75 14.9181 29.4515 15.6388 28.9201 16.1701C28.3888 16.7015 27.6681 17 26.9167 17C26.1652 17 25.4446 16.7015 24.9132 16.1701C24.3818 15.6388 24.0833 14.9181 24.0833 14.1667V11.3333C24.0833 8.738 25.517 7.31 26.2735 6.5535L26.3302 6.49683C26.9308 5.89617 26.9252 5.84233 26.9195 5.71767L26.9167 5.66667V2.83333C26.9167 2.08189 27.2152 1.36122 27.7465 0.829864C28.2779 0.298511 28.9986 0 29.75 0ZM5.66667 26.9167H51C51 32.9282 48.6119 38.6936 44.3611 42.9444C40.1103 47.1952 34.3449 49.5833 28.3333 49.5833C22.3218 49.5833 16.5564 47.1952 12.3056 42.9444C8.05476 38.6936 5.66667 32.9282 5.66667 26.9167ZM2.83333 21.25C2.08189 21.25 1.36122 21.5485 0.829864 22.0799C0.298511 22.6112 0 23.3319 0 24.0833V26.9167C0 38.5333 6.99267 48.5208 17 52.8927V55.25C17 56.0014 17.2985 56.7221 17.8299 57.2535C18.3612 57.7848 19.0819 58.0833 19.8333 58.0833H36.8333C37.5848 58.0833 38.3055 57.7848 38.8368 57.2535C39.3682 56.7221 39.6667 56.0014 39.6667 55.25V52.8927C49.674 48.5208 56.6667 38.5362 56.6667 26.9167V24.0833C56.6667 23.3319 56.3682 22.6112 55.8368 22.0799C55.3055 21.5485 54.5848 21.25 53.8333 21.25H2.83333Z"
        fill="currentColor" />
</svg>