<svg width="71" height="64" viewBox="0 0 71 64" fill="none" xmlns="http://www.w3.org/2000/svg">
<path d="M48.8992 8.65059L58.9496 18.6536L52.2493 21.9879L65.6499 35.3253L55.5995 38.6596L69 51.997H38.8488M45.5491 62V51.997M22.0982 35.3253L15.3979 28.6566M22.0982 31.991L28.7984 25.3223M22.0982 62V18.6536M14.8083 45.3283C13.3425 45.2429 11.9133 44.8389 10.6213 44.1446C9.32926 43.4504 8.20575 42.4829 7.32979 41.31C6.45383 40.1372 5.84671 38.7876 5.55111 37.3562C5.25552 35.9247 5.27865 34.4462 5.61887 33.0246C4.40435 32.018 3.44549 30.7404 2.82014 29.2957C2.1948 27.851 1.92061 26.2799 2.01983 24.71C2.11904 23.14 2.58888 21.6155 3.39118 20.2602C4.19348 18.9049 5.30563 17.757 6.63731 16.9097C5.46936 14.8446 5.07598 12.4339 5.52728 10.1071C5.97858 7.78022 7.24523 5.68842 9.10155 4.20436C10.9579 2.7203 13.2833 1.94038 15.6635 2.00356C18.0436 2.06674 20.324 2.96892 22.0982 4.54935C23.8728 2.97142 26.1523 2.07138 28.5312 2.00942C30.91 1.94747 33.2338 2.72762 35.0889 4.21102C36.944 5.69442 38.21 7.78483 38.6618 10.1102C39.1135 12.4356 38.7215 14.845 37.5557 16.9097C38.8876 17.7567 40 18.9044 40.8026 20.2595C41.6052 21.6147 42.0754 23.1392 42.1749 24.7091C42.2745 26.2791 42.0006 27.8503 41.3755 29.2951C40.7504 30.74 39.7918 32.0177 38.5775 33.0246C38.9291 34.4944 38.9417 36.0243 38.6143 37.4996C38.2869 38.9749 37.6279 40.3572 36.6869 41.5428C35.7459 42.7283 34.5473 43.6863 33.181 44.3448C31.8148 45.0033 30.3164 45.3453 28.7984 45.345H15.3979L14.8083 45.3283Z" stroke="white" stroke-width="4" stroke-linecap="round" stroke-linejoin="round"/>
</svg>
