<svg width="68" height="56" viewBox="0 0 68 56" fill="none" xmlns="http://www.w3.org/2000/svg">
<path d="M65.6552 51.3333H63.3103V28C63.3103 26.7623 62.8163 25.5753 61.9368 24.7002C61.0573 23.825 59.8645 23.3333 58.6207 23.3333H42.2069V4.66667C42.2069 3.42899 41.7128 2.242 40.8333 1.36683C39.9538 0.491665 38.761 0 37.5172 0H9.37931C8.13554 0 6.9427 0.491665 6.06322 1.36683C5.18374 2.242 4.68966 3.42899 4.68966 4.66667V51.3333H2.34483C1.72294 51.3333 1.12652 51.5792 0.686784 52.0167C0.247044 52.4543 0 53.0478 0 53.6667C0 54.2855 0.247044 54.879 0.686784 55.3166C1.12652 55.7542 1.72294 56 2.34483 56H65.6552C66.2771 56 66.8735 55.7542 67.3132 55.3166C67.753 54.879 68 54.2855 68 53.6667C68 53.0478 67.753 52.4543 67.3132 52.0167C66.8735 51.5792 66.2771 51.3333 65.6552 51.3333ZM58.6207 28V51.3333H42.2069V28H58.6207ZM9.37931 4.66667H37.5172V51.3333H32.8276V37.3333C32.8276 36.7145 32.5805 36.121 32.1408 35.6834C31.7011 35.2458 31.1046 35 30.4828 35H16.4138C15.7919 35 15.1955 35.2458 14.7558 35.6834C14.316 36.121 14.069 36.7145 14.069 37.3333V51.3333H9.37931V4.66667ZM28.1379 51.3333H18.7586V39.6667H28.1379V51.3333ZM14.069 18.6667C14.069 18.0478 14.316 17.4543 14.7558 17.0168C15.1955 16.5792 15.7919 16.3333 16.4138 16.3333H21.1034V11.6667C21.1034 11.0478 21.3505 10.4543 21.7902 10.0168C22.23 9.57917 22.8264 9.33333 23.4483 9.33333C24.0702 9.33333 24.6666 9.57917 25.1063 10.0168C25.5461 10.4543 25.7931 11.0478 25.7931 11.6667V16.3333H30.4828C31.1046 16.3333 31.7011 16.5792 32.1408 17.0168C32.5805 17.4543 32.8276 18.0478 32.8276 18.6667C32.8276 19.2855 32.5805 19.879 32.1408 20.3166C31.7011 20.7542 31.1046 21 30.4828 21H25.7931V25.6667C25.7931 26.2855 25.5461 26.879 25.1063 27.3166C24.6666 27.7542 24.0702 28 23.4483 28C22.8264 28 22.23 27.7542 21.7902 27.3166C21.3505 26.879 21.1034 26.2855 21.1034 25.6667V21H16.4138C15.7919 21 15.1955 20.7542 14.7558 20.3166C14.316 19.879 14.069 19.2855 14.069 18.6667Z" fill="white"/>
</svg>
