<svg width="67" height="67" viewBox="0 0 67 67" fill="none" xmlns="http://www.w3.org/2000/svg">
<path fill-rule="evenodd" clip-rule="evenodd" d="M19.4393 0.312944C19.7451 0.108895 20.1046 0 20.4722 0C20.8399 0 21.1993 0.108895 21.5051 0.312944L32.6718 7.75736C32.9266 7.92737 33.1355 8.15765 33.28 8.42776C33.4245 8.69787 33.5 8.99947 33.5 9.3058V24.1946C33.5 24.6882 33.3039 25.1616 32.9549 25.5106C32.6059 25.8596 32.1325 26.0557 31.6389 26.0557H9.30556C8.81196 26.0557 8.33858 25.8596 7.98955 25.5106C7.64053 25.1616 7.44444 24.6882 7.44444 24.1946V9.3058C7.4444 8.99947 7.51996 8.69787 7.66444 8.42776C7.80891 8.15765 8.01782 7.92737 8.27264 7.75736L19.4393 0.312944ZM18.6111 22.3335H22.3333V14.8891H18.6111V22.3335ZM26.0556 22.3335V13.028C26.0556 12.5344 25.8595 12.061 25.5105 11.712C25.1614 11.363 24.688 11.1669 24.1944 11.1669H16.75C16.2564 11.1669 15.783 11.363 15.434 11.712C15.085 12.061 14.8889 12.5344 14.8889 13.028V22.3335H11.1667V10.3015L20.4722 4.09843L29.7778 10.3015V22.3335H26.0556ZM53.0342 11.4126C52.7531 11.252 52.4349 11.1675 52.1111 11.1675C51.7873 11.1675 51.4692 11.252 51.188 11.4126L38.1602 18.857C37.8754 19.0197 37.6386 19.2548 37.4739 19.5385C37.3091 19.8222 37.2223 20.1444 37.2222 20.4724V39.0835C37.2222 39.577 37.4183 40.0504 37.7673 40.3994C38.1164 40.7485 38.5897 40.9446 39.0833 40.9446H65.1389C65.6325 40.9446 66.1059 40.7485 66.4549 40.3994C66.8039 40.0504 67 39.577 67 39.0835V20.4724C66.9999 20.1444 66.9131 19.8222 66.7484 19.5385C66.5836 19.2548 66.3468 19.0197 66.062 18.857L53.0342 11.4126ZM57.6944 37.2223H63.2778V21.5519L52.1111 15.172L40.9444 21.5519V37.2223H46.5278V26.0557C46.5278 25.5621 46.7239 25.0888 47.0729 24.7397C47.4219 24.3907 47.8953 24.1946 48.3889 24.1946H55.8333C56.3269 24.1946 56.8003 24.3907 57.1493 24.7397C57.4984 25.0888 57.6944 25.5621 57.6944 26.0557V37.2223ZM53.9722 37.2223V27.9168H50.25V37.2223H53.9722ZM32.4708 41.1418L17.5819 33.6974C17.3236 33.5683 17.0388 33.5011 16.75 33.5011C16.4612 33.5011 16.1764 33.5683 15.9181 33.6974L1.02919 41.1418C0.7201 41.2963 0.460107 41.5337 0.278334 41.8276C0.0965603 42.1215 0.000184527 42.4601 0 42.8057V65.1389C0 65.6325 0.196081 66.1059 0.545107 66.4549C0.894133 66.8039 1.36751 67 1.86111 67H31.6389C32.1325 67 32.6059 66.8039 32.9549 66.4549C33.3039 66.1059 33.5 65.6325 33.5 65.1389V42.8057C33.4998 42.4601 33.4034 42.1215 33.2217 41.8276C33.0399 41.5337 32.7799 41.2963 32.4708 41.1418ZM18.6111 52.1112V63.2778H14.8889V52.1112H18.6111ZM22.3333 50.2501V63.2778H29.7778V43.9558L16.75 37.442L3.72222 43.9558V63.2778H11.1667V50.2501C11.1667 49.7565 11.3627 49.2831 11.7118 48.9341C12.0608 48.585 12.5342 48.389 13.0278 48.389H20.4722C20.9658 48.389 21.4392 48.585 21.7882 48.9341C22.1373 49.2831 22.3333 49.7565 22.3333 50.2501Z" fill="white"/>
</svg>
