<svg width="64" height="64" viewBox="0 0 64 64" fill="none" xmlns="http://www.w3.org/2000/svg">
<path d="M20.9231 35.6923C20.1928 35.6923 19.4789 35.4757 18.8718 35.07C18.2646 34.6643 17.7913 34.0877 17.5118 33.413C17.2324 32.7383 17.1593 31.9959 17.3017 31.2797C17.4442 30.5634 17.7959 29.9055 18.3122 29.3891C18.8286 28.8728 19.4865 28.5211 20.2028 28.3786C20.919 28.2362 21.6614 28.3093 22.3361 28.5887C23.0108 28.8682 23.5874 29.3415 23.9931 29.9487C24.3988 30.5559 24.6154 31.2697 24.6154 32C24.6154 32.9793 24.2264 33.9184 23.5339 34.6108C22.8415 35.3033 21.9023 35.6923 20.9231 35.6923ZM43.0769 28.3077C42.3467 28.3077 41.6328 28.5242 41.0256 28.93C40.4184 29.3357 39.9451 29.9123 39.6657 30.587C39.3862 31.2617 39.3131 32.0041 39.4556 32.7203C39.598 33.4366 39.9497 34.0945 40.4661 34.6108C40.9825 35.1272 41.6404 35.4789 42.3566 35.6214C43.0728 35.7638 43.8152 35.6907 44.4899 35.4112C45.1646 35.1318 45.7412 34.6585 46.147 34.0513C46.5527 33.4441 46.7692 32.7303 46.7692 32C46.7692 31.0207 46.3802 30.0816 45.6878 29.3891C44.9953 28.6967 44.0562 28.3077 43.0769 28.3077ZM39.3015 42.2246C37.1092 43.5853 34.5803 44.3063 32 44.3063C29.4197 44.3063 26.8908 43.5853 24.6985 42.2246C24.146 41.8761 23.4777 41.7614 22.8407 41.9057C22.2036 42.05 21.65 42.4414 21.3015 42.9938C20.9531 43.5463 20.8384 44.2146 20.9826 44.8516C21.1269 45.4887 21.5183 46.0423 22.0708 46.3908C25.0497 48.2478 28.4897 49.2322 32 49.2322C35.5103 49.2322 38.9503 48.2478 41.9292 46.3908C42.4817 46.0423 42.8731 45.4887 43.0174 44.8516C43.1616 44.2146 43.0469 43.5463 42.6985 42.9938C42.35 42.4414 41.7964 42.05 41.1593 41.9057C40.5223 41.7614 39.854 41.8761 39.3015 42.2246ZM64 32C64 38.329 62.1232 44.5159 58.607 49.7782C55.0908 55.0406 50.0931 59.1421 44.2459 61.5641C38.3986 63.9861 31.9645 64.6198 25.7571 63.3851C19.5497 62.1504 13.8479 59.1027 9.37259 54.6274C4.89732 50.1521 1.84961 44.4503 0.614885 38.2429C-0.619842 32.0355 0.0138651 25.6014 2.43587 19.7541C4.85787 13.9069 8.95939 8.90917 14.2218 5.39297C19.4841 1.87677 25.671 0 32 0C40.4842 0.00895944 48.6183 3.38325 54.6175 9.38248C60.6167 15.3817 63.991 23.5158 64 32ZM59.0769 32C59.0684 25.0297 56.3754 18.3305 51.5573 13.2935C46.7392 8.25649 40.1661 5.26878 33.2031 4.95077C29.6369 9.96307 29.5385 14.7323 29.5385 14.7692C29.5385 15.4221 29.7978 16.0482 30.2594 16.5098C30.7211 16.9714 31.3472 17.2308 32 17.2308C32.6528 17.2308 33.2789 16.9714 33.7406 16.5098C34.2022 16.0482 34.4615 15.4221 34.4615 14.7692C34.4615 14.1164 34.7209 13.4903 35.1825 13.0287C35.6441 12.567 36.2702 12.3077 36.9231 12.3077C37.5759 12.3077 38.202 12.567 38.6637 13.0287C39.1253 13.4903 39.3846 14.1164 39.3846 14.7692C39.3846 16.7277 38.6066 18.6061 37.2217 19.9909C35.8368 21.3758 33.9585 22.1538 32 22.1538C30.0415 22.1538 28.1632 21.3758 26.7783 19.9909C25.3934 18.6061 24.6154 16.7277 24.6154 14.7692C24.6154 14.5446 24.6554 10.3692 27.2185 5.34461C22.1488 6.25417 17.4437 8.59082 13.6553 12.0804C9.86694 15.5699 7.15243 20.0676 5.83033 25.0457C4.50822 30.0237 4.63337 35.2756 6.19109 40.185C7.74882 45.0944 10.6745 49.4577 14.6248 52.7628C18.5751 56.068 23.3861 58.1779 28.4934 58.8449C33.6006 59.5119 38.7922 58.7084 43.4588 56.5287C48.1255 54.349 52.0736 50.8835 54.84 46.5388C57.6064 42.1942 59.0762 37.1506 59.0769 32Z" fill="white"/>
</svg>
