<svg width="74" height="59" viewBox="0 0 74 59" fill="none" xmlns="http://www.w3.org/2000/svg">
    <path
        d="M71.125 54.9314H59.9688V45.8533H68.5C68.7993 45.8533 69.0947 45.7859 69.3637 45.6561C69.6327 45.5264 69.8682 45.3377 70.0524 45.1045C70.2365 44.8713 70.3644 44.5997 70.4263 44.3104C70.4882 44.021 70.4825 43.7215 70.4097 43.4346L59.9097 1.9346C59.803 1.51397 59.5571 1.14062 59.2111 0.873858C58.8651 0.607092 58.4389 0.462202 58 0.462202C57.5611 0.462202 57.1349 0.607092 56.7889 0.873858C56.4429 1.14062 56.197 1.51397 56.0903 1.9346L45.5903 43.4346C45.5175 43.7215 45.5118 44.021 45.5737 44.3104C45.6356 44.5997 45.7635 44.8713 45.9476 45.1045C46.1318 45.3377 46.3673 45.5264 46.6363 45.6561C46.9053 45.7859 47.2007 45.8533 47.5 45.8533H56.0312V54.9314H33.7188V48.447H37C37.5221 48.447 38.0229 48.2421 38.3921 47.8773C38.7613 47.5124 38.9688 47.0176 38.9688 46.5017C38.9688 45.9858 38.7613 45.491 38.3921 45.1262C38.0229 44.7613 37.5221 44.5564 37 44.5564H33.7188V38.072H37C37.5221 38.072 38.0229 37.8671 38.3921 37.5023C38.7613 37.1374 38.9688 36.6426 38.9688 36.1267C38.9688 35.6108 38.7613 35.116 38.3921 34.7512C38.0229 34.3863 37.5221 34.1814 37 34.1814H8.125C7.60286 34.1814 7.1021 34.3863 6.73288 34.7512C6.36367 35.116 6.15625 35.6108 6.15625 36.1267C6.15625 36.6426 6.36367 37.1374 6.73288 37.5023C7.1021 37.8671 7.60286 38.072 8.125 38.072H11.4062V44.5564H8.125C7.60286 44.5564 7.1021 44.7613 6.73288 45.1262C6.36367 45.491 6.15625 45.9858 6.15625 46.5017C6.15625 47.0176 6.36367 47.5124 6.73288 47.8773C7.1021 48.2421 7.60286 48.447 8.125 48.447H11.4062V54.9314H2.875C2.35286 54.9314 1.8521 55.1363 1.48288 55.5012C1.11367 55.866 0.90625 56.3608 0.90625 56.8767C0.90625 57.3926 1.11367 57.8874 1.48288 58.2523C1.8521 58.6171 2.35286 58.822 2.875 58.822H71.125C71.6471 58.822 72.1479 58.6171 72.5171 58.2523C72.8863 57.8874 73.0938 57.3926 73.0938 56.8767C73.0938 56.3608 72.8863 55.866 72.5171 55.5012C72.1479 55.1363 71.6471 54.9314 71.125 54.9314ZM58 10.4291L65.98 41.9626H50.02L58 10.4291ZM15.3438 38.072H29.7812V44.5564H15.3438V38.072ZM15.3438 48.447H29.7812V54.9314H15.3438V48.447ZM33.0625 22.5095C34.7498 22.5095 36.3993 22.0151 37.8022 21.0889C39.2052 20.1626 40.2986 18.8461 40.9444 17.3057C41.5901 15.7654 41.759 14.0705 41.4298 12.4353C41.1006 10.8001 40.2881 9.29806 39.095 8.11914C37.9019 6.94023 36.3818 6.13738 34.7269 5.81212C33.072 5.48686 31.3566 5.6538 29.7977 6.29182C28.2388 6.92984 26.9065 8.0103 25.969 9.39655C25.0316 10.7828 24.5312 12.4126 24.5312 14.0798C24.5312 16.3155 25.4301 18.4597 27.03 20.0405C28.6299 21.6214 30.7999 22.5095 33.0625 22.5095ZM33.0625 9.54077C33.9711 9.54077 34.8592 9.80698 35.6147 10.3057C36.3701 10.8045 36.9589 11.5134 37.3066 12.3428C37.6543 13.1722 37.7452 14.0849 37.568 14.9654C37.3907 15.8459 36.9532 16.6546 36.3108 17.2894C35.6683 17.9242 34.8498 18.3565 33.9587 18.5317C33.0676 18.7068 32.1439 18.6169 31.3045 18.2734C30.4652 17.9298 29.7477 17.348 29.2429 16.6016C28.7382 15.8552 28.4688 14.9776 28.4688 14.0798C28.4688 12.876 28.9527 11.7215 29.8142 10.8702C30.6757 10.019 31.8442 9.54077 33.0625 9.54077Z"
        fill="currentColor" />
</svg>