<svg width="59" height="68" viewBox="0 0 59 68" fill="none" xmlns="http://www.w3.org/2000/svg">
<path d="M43.1427 26V60.2857C43.1382 61.7998 42.5347 63.2507 41.464 64.3213C40.3934 65.392 38.9426 65.9955 37.4284 66H12.2856C10.7714 65.9955 9.32062 65.392 8.24996 64.3213C7.1793 63.2507 6.57581 61.7998 6.57129 60.2857V29.4286" stroke="white" stroke-width="4" stroke-linecap="round" stroke-linejoin="round"/>
<path d="M43.1433 29.4287H48.8576C50.9775 29.4347 53.0088 30.2795 54.5078 31.7785C56.0068 33.2775 56.8516 35.3088 56.8576 37.4287V48.8573C56.8516 50.9772 56.0068 53.0085 54.5078 54.5075C53.0088 56.0065 50.9775 56.8512 48.8576 56.8573H43.1433" stroke="white" stroke-width="4" stroke-miterlimit="10" stroke-linecap="round"/>
<path d="M24.8571 34.0001V56.8573M34 34.0001V56.8573M15.7143 34.0001V56.8573M38.5714 13.4287C40.3901 13.4287 42.1342 14.1512 43.4202 15.4371C44.7061 16.7231 45.4286 18.4672 45.4286 20.2859C45.4286 22.1045 44.7061 23.8486 43.4202 25.1346C42.1342 26.4205 40.3901 27.143 38.5714 27.143C36.6786 27.143 34.3843 26.0987 33.1429 24.8573H15.7143C14.5714 28.0001 11.8571 29.4287 8.85714 29.4287C7.03852 29.4287 5.29437 28.7063 4.00841 27.4203C2.72245 26.1343 2 24.3902 2 22.5716C2 20.7529 2.72245 19.0088 4.00841 17.7228C5.29437 16.4369 7.03852 15.7144 8.85714 15.7144C10.1943 15.7705 11.4857 16.2176 12.5714 17.0001" stroke="white" stroke-width="4" stroke-linecap="round" stroke-linejoin="round"/>
<path d="M5.9798 16.3471C5.41949 15.792 4.98017 15.1269 4.6895 14.3936C4.39884 13.6604 4.26312 12.8749 4.2909 12.0866C4.31868 11.2983 4.50935 10.5243 4.85091 9.81338C5.19246 9.1024 5.67751 8.46984 6.27552 7.95552C6.87352 7.44119 7.57153 7.05623 8.3256 6.82488C9.07967 6.59354 9.87347 6.5208 10.657 6.61127C11.4406 6.70173 12.1969 6.95344 12.8784 7.35053C13.5599 7.74762 14.1519 8.28151 14.6169 8.91857C14.6169 8.91857 15.7141 10.4286 15.7141 11.1429M13.6898 6.67286C16.1741 3.84143 19.6527 2 23.7141 2C31.1969 2 37.1427 8.12 37.1427 15.6014C37.1432 16.4542 37.0633 17.3051 36.9041 18.1429" stroke="white" stroke-width="4" stroke-miterlimit="10" stroke-linecap="round"/>
</svg>
