<svg width="78" height="79" viewBox="0 0 78 79" fill="none" xmlns="http://www.w3.org/2000/svg">
    <path
        d="M6.5 19.75C8.45 21.3958 10.4 23.0417 14.625 23.0417C22.75 23.0417 22.75 16.4583 30.875 16.4583C39.325 16.4583 38.675 23.0417 47.125 23.0417C55.25 23.0417 55.25 16.4583 63.375 16.4583C67.6 16.4583 69.55 18.1042 71.5 19.75M6.5 39.5C8.45 41.1458 10.4 42.7917 14.625 42.7917C22.75 42.7917 22.75 36.2083 30.875 36.2083C39.325 36.2083 38.675 42.7917 47.125 42.7917C55.25 42.7917 55.25 36.2083 63.375 36.2083C67.6 36.2083 69.55 37.8542 71.5 39.5M6.5 59.25C8.45 60.8958 10.4 62.5417 14.625 62.5417C22.75 62.5417 22.75 55.9583 30.875 55.9583C39.325 55.9583 38.675 62.5417 47.125 62.5417C55.25 62.5417 55.25 55.9583 63.375 55.9583C67.6 55.9583 69.55 57.6042 71.5 59.25"
        stroke="currentColor" stroke-width="4" stroke-linecap="round" stroke-linejoin="round" />
</svg>