<svg width="76" height="76" viewBox="0 0 76 76" fill="none" xmlns="http://www.w3.org/2000/svg">
    <path fill-rule="evenodd" clip-rule="evenodd"
        d="M37.2398 41.0476C37.7438 41.0476 38.227 41.2478 38.5833 41.6041C38.9397 41.9604 39.1398 42.4437 39.1398 42.9476V63.8476C39.1398 64.3515 38.9397 64.8348 38.5833 65.1911C38.227 65.5474 37.7438 65.7476 37.2398 65.7476C36.7359 65.7476 36.2527 65.5474 35.8963 65.1911C35.54 64.8348 35.3398 64.3515 35.3398 63.8476V42.9476C35.3398 42.4437 35.54 41.9604 35.8963 41.6041C36.2527 41.2478 36.7359 41.0476 37.2398 41.0476Z"
        fill="currentColor" />
    <path fill-rule="evenodd" clip-rule="evenodd"
        d="M9.08191 24.491C10.6019 29.241 13.5659 34.0252 17.3089 36.7916C21.6637 40.014 25.5929 41.0552 28.7773 40.8462C30.2307 40.766 31.6527 40.3915 32.9571 39.7455C34.2615 39.0995 35.4212 38.1954 36.3659 37.088C37.9429 35.2374 38.4217 32.4824 37.5781 29.298C36.7345 26.1212 34.6027 22.705 31.3081 19.9006C27.9869 17.0696 23.0887 14.5312 18.5515 13.3076C16.2867 12.6996 14.2195 12.445 12.5399 12.5856C10.8565 12.73 9.78871 13.2468 9.18071 13.9574C8.52711 14.725 8.06731 16.0588 8.02171 17.9854C7.97611 19.8778 8.33331 22.135 9.08191 24.491ZM4.21791 17.898C4.27491 15.523 4.84111 13.1936 6.28511 11.4988C7.77471 9.7508 9.96731 8.9946 12.2169 8.8008C14.4779 8.6108 17.0125 8.9642 19.5357 9.6444C24.5783 11.001 29.9895 13.7902 33.7705 17.0088C37.5781 20.254 40.1811 24.3124 41.2451 28.3252C42.3091 32.3304 41.8683 36.4876 39.2539 39.558C37.9799 41.0516 36.4168 42.272 34.6588 43.1458C32.9008 44.0196 30.9842 44.5287 29.0243 44.6424C24.7683 44.9198 19.9727 43.4948 15.0479 39.8544C10.4993 36.48 7.15151 30.932 5.46431 25.6424C4.61691 22.9824 4.16091 20.2996 4.21791 17.8904"
        fill="currentColor" />
    <path fill-rule="evenodd" clip-rule="evenodd"
        d="M65.8994 35.4426C64.0412 39.71 60.9556 43.8368 57.3038 45.847C48.8792 50.483 42.9474 46.949 40.8954 43.6772C40.0328 42.2978 39.8428 39.748 40.9334 36.7612C41.9974 33.8542 44.1634 30.875 47.42 28.8344C50.7754 26.7368 55.457 25.2738 59.6028 24.8444C61.6738 24.6354 63.5054 24.6924 64.9076 24.9964C66.3592 25.3118 67.0318 25.821 67.2826 26.22C67.5828 26.6988 67.8146 27.7856 67.6018 29.5754C67.3966 31.2854 66.819 33.3336 65.8994 35.4426ZM71.3714 30.0276C71.6222 27.9604 71.5006 25.7982 70.505 24.2022C69.4562 22.5302 67.579 21.6904 65.7132 21.2838C63.7942 20.8658 61.5332 20.8278 59.2152 21.0672C54.5868 21.5422 49.3276 23.1572 45.406 25.6158C41.714 27.9202 38.8871 31.3803 37.3652 35.4578C36.0618 39.026 35.944 42.9286 37.673 45.6912C40.8118 50.7034 48.9704 54.7694 59.1354 49.1758C63.7866 46.6146 67.3358 41.6632 69.384 36.9588C70.4214 34.5838 71.1168 32.1746 71.3752 30.0276"
        fill="currentColor" />
    <path fill-rule="evenodd" clip-rule="evenodd"
        d="M33.8578 40.337C31.4349 37.3078 28.6388 34.5972 25.5358 32.2696L22.7998 30.2176C22.6002 30.0679 22.432 29.8803 22.3049 29.6656C22.1778 29.4509 22.0942 29.2133 22.0589 28.9663C22.0236 28.7193 22.0373 28.4678 22.0992 28.2261C22.1612 27.9844 22.2701 27.7572 22.4198 27.5576C22.5695 27.358 22.7571 27.1898 22.9718 27.0627C23.1865 26.9356 23.4241 26.852 23.6711 26.8167C23.9181 26.7814 24.1696 26.7951 24.4113 26.8571C24.653 26.919 24.8802 27.0279 25.0798 27.1776L27.8158 29.2296C31.1674 31.749 34.1998 34.6826 36.8218 37.962C37.1183 38.3567 37.2495 38.8513 37.1878 39.341C37.126 39.8308 36.876 40.2773 36.4908 40.5859C36.1056 40.8946 35.6153 41.0412 35.1239 40.9948C34.6324 40.9483 34.1783 40.7124 33.8578 40.337ZM42.385 47.1428C44.8075 44.7183 47.4974 42.5766 50.403 40.7588L53.4468 38.8588C53.6584 38.7266 53.8418 38.5539 53.9867 38.3508C54.1316 38.1477 54.235 37.918 54.2911 37.6748C54.3472 37.4317 54.3549 37.1799 54.3137 36.9338C54.2725 36.6878 54.1832 36.4522 54.051 36.2406C53.9188 36.029 53.7461 35.8456 53.543 35.7007C53.3398 35.5558 53.1101 35.4524 52.867 35.3963C52.6239 35.3402 52.3721 35.3325 52.126 35.3737C51.8799 35.4149 51.6444 35.5042 51.4328 35.6364L48.3928 37.5364C45.2423 39.5053 42.3254 41.8254 39.6984 44.4524C39.3416 44.8087 39.141 45.2921 39.1406 45.7963C39.1403 46.3005 39.3402 46.7841 39.6965 47.1409C40.0528 47.4977 40.5362 47.6983 41.0404 47.6987C41.5445 47.699 42.0282 47.4991 42.385 47.1428Z"
        fill="currentColor" />
</svg>