<?xml version="1.0" encoding="UTF-8" standalone="no"?>
<!DOCTYPE svg PUBLIC "-//W3C//DTD SVG 1.1//EN" "http://www.w3.org/Graphics/SVG/1.1/DTD/svg11.dtd">
<svg width="100%" fill="currentColor" height="100%" viewBox="0 0 67 57" version="1.1" xmlns="http://www.w3.org/2000/svg"
    xmlns:xlink="http://www.w3.org/1999/xlink" xml:space="preserve" xmlns:serif="http://www.serif.com/"
    style="fill-rule:evenodd;clip-rule:evenodd;stroke-linejoin:round;stroke-miterlimit:2;">
    <path
        d="M31.594,1.443C31.872,1.166 32.246,1.007 32.637,1C33.029,0.993 33.409,1.139 33.695,1.407L39.578,6.902C43.919,10.959 48.754,14.451 53.968,17.296C55.138,17.936 55.938,19.089 56.128,20.41L60.65,52.112C60.72,52.604 61.142,52.97 61.64,52.971L64.487,52.971C64.889,52.971 65.273,53.13 65.557,53.414C65.841,53.698 66,54.083 66,54.485C66,54.887 65.841,55.272 65.557,55.557C65.273,55.84 64.889,56 64.487,56L2.513,56C2.111,56 1.727,55.841 1.443,55.557C1.159,55.272 1,54.887 1,54.485C1,54.083 1.159,53.698 1.443,53.414C1.727,53.13 2.111,52.971 2.513,52.971L5.36,52.971C5.858,52.971 6.28,52.604 6.35,52.112L10.889,20.292C11.064,19.064 11.784,17.98 12.846,17.343C17.597,14.487 21.982,11.061 25.903,7.14L31.594,1.443ZM9.445,51.829C9.404,52.116 9.49,52.407 9.68,52.626C9.87,52.845 10.145,52.97 10.435,52.971L17.574,52.971C17.895,52.971 18.196,52.817 18.384,52.557C23.719,45.197 27.746,36.972 30.289,28.243L32.048,22.207C32.14,21.893 32.331,21.616 32.593,21.42C32.855,21.223 33.173,21.117 33.5,21.117C33.827,21.117 34.145,21.223 34.407,21.42C34.669,21.616 34.86,21.893 34.952,22.207L36.711,28.243C39.254,36.972 43.281,45.197 48.616,52.557C48.804,52.817 49.105,52.97 49.426,52.971L56.565,52.971C56.855,52.971 57.13,52.845 57.32,52.626C57.51,52.407 57.596,52.116 57.555,51.829L53.133,20.837C53.132,20.833 53.131,20.829 53.131,20.824C53.103,20.644 53.034,20.472 52.929,20.323C52.826,20.174 52.689,20.051 52.531,19.962C52.528,19.96 52.524,19.958 52.521,19.957C47.085,16.989 42.043,13.348 37.516,9.119L33.405,5.28C33.011,4.912 32.396,4.923 32.015,5.304L28.039,9.284C23.946,13.382 19.365,16.96 14.4,19.94C14.376,19.955 14.352,19.97 14.33,19.986C14.098,20.153 13.94,20.403 13.89,20.685C13.888,20.697 13.886,20.708 13.884,20.72L9.445,51.829ZM43.312,52.971C43.68,52.971 44.018,52.768 44.193,52.444C44.367,52.12 44.349,51.726 44.146,51.419C40.007,45.155 36.745,38.353 34.452,31.202C34.32,30.788 33.935,30.507 33.5,30.507C33.065,30.507 32.681,30.788 32.548,31.202C30.254,38.353 26.991,45.155 22.85,51.419C22.647,51.726 22.629,52.12 22.804,52.444C22.978,52.768 23.316,52.97 23.684,52.971L43.312,52.971Z" />
</svg>