<svg width="67" height="57" viewBox="0 0 67 57" fill="none" xmlns="http://www.w3.org/2000/svg">
    <path
        d="M30.887 0.736512C31.3476 0.275564 31.969 0.011635 32.6202 0.000375563C33.2714 -0.0108839 33.9015 0.231406 34.3777 0.676157L40.2603 6.17174C44.5405 10.1704 49.3071 13.6131 54.4475 16.4185C55.8947 17.2098 56.883 18.6349 57.1175 20.2678L61.64 51.9705H64.4875C65.1539 51.9705 65.7929 52.2354 66.2641 52.707C66.7353 53.1786 67 53.8183 67 54.4852C67 55.1522 66.7353 55.7918 66.2641 56.2634C65.7929 56.7351 65.1539 57 64.4875 57H2.5125C1.84614 57 1.20708 56.7351 0.735894 56.2634C0.264709 55.7918 0 55.1522 0 54.4852C0 53.8183 0.264709 53.1786 0.735894 52.707C1.20708 52.2354 1.84614 51.9705 2.5125 51.9705H5.36L9.89925 20.1504C10.117 18.6248 11.0115 17.2769 12.3314 16.4856C17.0126 13.672 21.3326 10.2962 25.1953 6.43327L30.887 0.736512ZM10.4352 51.9705H17.5741C22.8416 44.7035 26.8182 36.5821 29.3293 27.9629L31.088 21.9275C31.2402 21.4052 31.5576 20.9463 31.9925 20.6199C32.4274 20.2934 32.9564 20.1169 33.5 20.1169C34.0436 20.1169 34.5726 20.2934 35.0075 20.6199C35.4424 20.9463 35.7598 21.4052 35.912 21.9275L37.6707 27.9629C40.1818 36.5821 44.1584 44.7035 49.4259 51.9705H56.5648L52.1427 20.9786C52.138 20.9485 52.1265 20.9199 52.1091 20.895C52.0917 20.87 52.0688 20.8493 52.0422 20.8344C46.5317 17.827 41.4218 14.1364 36.8332 9.84999L32.7228 6.01079L28.7463 9.99082C24.5951 14.1464 19.9496 17.7758 14.9142 20.7976C14.8931 20.8128 14.8786 20.8356 14.874 20.8613L10.4352 51.9705ZM43.3121 51.9705C39.1223 45.6303 35.8208 38.745 33.5 31.5071C31.1781 38.7452 27.8755 45.6305 23.6845 51.9705H43.3121Z"
        fill="currentColor" />
</svg>